HIERARCHY
ROOT hip
{
	OFFSET 0.000000 0.000000 0.000000 
	CHANNELS 6 Xposition Yposition Zposition Xrotation Zrotation Yrotation
	JOINT abdomen
	{
		OFFSET 0.000000 3.402643 0.000000 
		CHANNELS 3 Xrotation Zrotation Yrotation
		JOINT chest
		{
			OFFSET 0.000000 8.438565 -0.680529 
			CHANNELS 3 Xrotation Zrotation Yrotation
			JOINT neck
			{
				OFFSET 0.000000 10.207942 -0.272212 
				CHANNELS 3 Xrotation Zrotation Yrotation
				JOINT head
				{
					OFFSET 0.000000 3.130431 0.000000 
					CHANNELS 3 Xrotation Zrotation Yrotation
					End Site
					{
						OFFSET 0.000000 3.130435 0.000000 
					}
				}
			}
			JOINT lCollar
			{
				OFFSET 3.470700 6.669187 -0.816635 
				CHANNELS 3 Yrotation Zrotation Xrotation
				JOINT lShldr
				{
					OFFSET 3.198488 0.000000 0.000000 
					CHANNELS 3 Zrotation Yrotation Xrotation
					JOINT lForeArm
					{
						OFFSET 10.139888 0.000000 0.000000 
						CHANNELS 3 Yrotation Zrotation Xrotation
						JOINT lHand
						{
							OFFSET 8.370511 0.000000 0.000000 
							CHANNELS 3 Zrotation Yrotation Xrotation
							End Site
							{
								OFFSET 4.083176 0.000000 0.000000 
							}
						}
					}
				}
			}
			JOINT rCollar
			{
				OFFSET -3.470700 6.669187 -0.816635 
				CHANNELS 3 Yrotation Zrotation Xrotation
				JOINT rShldr
				{
					OFFSET -3.198488 0.000000 0.000000 
					CHANNELS 3 Zrotation Yrotation Xrotation
					JOINT rForeArm
					{
						OFFSET -10.139888 0.000000 0.000000 
						CHANNELS 3 Yrotation Zrotation Xrotation
						JOINT rHand
						{
							OFFSET -8.370511 0.000000 0.000000 
							CHANNELS 3 Zrotation Yrotation Xrotation
							End Site
							{
								OFFSET -4.083176 0.000000 0.000000 
							}
						}
					}
				}
			}
		}
	}
	JOINT lThigh
	{
		OFFSET 5.308129 -1.633274 1.361059 
		CHANNELS 3 Xrotation Zrotation Yrotation
		JOINT lShin
		{
			OFFSET -2.041588 -20.007561 0.000000 
			CHANNELS 3 Xrotation Zrotation Yrotation
			JOINT lFoot
			{
				OFFSET 0.000000 -19.190928 -1.224953 
				CHANNELS 3 Xrotation Yrotation Zrotation
				End Site
				{
					OFFSET 0.000000 -2.449906 4.627600 
				}
			}
		}
	}
	JOINT rThigh
	{
		OFFSET -5.308129 -1.633274 1.361059 
		CHANNELS 3 Xrotation Zrotation Yrotation
		JOINT rShin
		{
			OFFSET 2.041588 -20.007561 0.000000 
			CHANNELS 3 Xrotation Zrotation Yrotation
			JOINT rFoot
			{
				OFFSET 0.000000 -19.190928 -1.224953 
				CHANNELS 3 Xrotation Yrotation Zrotation
				End Site
				{
					OFFSET 0.000000 -2.449906 4.627600 
				}
			}
		}
	}
}
MOTION
Frames: 12
Frame Time: 0.033333
1.228667 40.129425 1.228667 -12.747297 23.102697 79.764549 12.238089 11.714539 -20.139112 6.409188 -0.375973 5.860637 -8.544922 -0.001505 -0.009645 19.337896 1.084021 -58.162170 2.000000 -2.000000 0.000000 -66.728035 -53.199638 -19.267483 -53.855064 -0.560902 8.616065 -20.993462 15.832806 -16.153557 -2.000000 2.000000 0.000000 -10.035631 32.801289 -62.918030 29.862383 0.701786 8.414968 16.218479 -16.459957 -16.732687 -96.472321 23.095604 -23.601175 38.768837 -0.797410 -2.964097 27.009415 -10.889149 -30.442980 -63.864529 -37.039314 -2.792265 38.751930 0.791007 2.893282 44.500462 34.413593 3.004580 
1.228667 39.568481 1.228667 -12.747297 23.102697 79.764549 6.696160 10.101875 -20.629288 6.409188 -0.375973 5.860637 -8.544922 -0.001505 -0.009645 15.666495 1.492335 -42.264297 2.000000 -2.000000 0.000000 -55.991665 -25.936815 -32.887646 -50.528126 -0.577105 8.584096 -22.041225 11.309105 -10.857903 -2.000000 2.000000 0.000000 1.584871 20.093470 -60.053627 28.579758 0.707942 8.404085 18.012352 -15.801631 -15.766904 -90.696625 29.062134 -22.954226 38.768841 -0.797374 -2.964086 14.042529 -9.609403 -34.398422 -47.778336 -39.290840 -12.439529 38.751930 0.791007 2.893282 31.709505 37.866505 3.750874 
1.228667 38.206196 1.228667 -12.747297 23.102697 79.764549 -7.632667 5.734833 -21.133301 6.409188 -0.375973 5.860637 -8.544922 -0.001505 -0.009645 21.171879 4.469646 -27.572491 2.000000 -2.000000 0.000000 -46.605976 5.437348 -34.258076 -44.947685 -0.608498 8.539502 -23.777805 11.632509 -11.127610 -2.000000 2.000000 0.000000 19.274769 -5.601184 -51.459141 28.718725 0.713877 8.404826 17.811052 -15.872822 -15.888193 -72.611084 34.139248 -15.029765 38.769207 -0.819055 -2.951869 -1.650475 -8.775596 -34.333149 -28.766943 -34.434864 -22.156446 38.751930 0.791010 2.893283 15.190562 36.861385 4.616450 
1.228667 36.923920 1.228667 -12.747297 23.102697 79.764549 -23.061398 1.017465 -20.441212 6.409188 -0.375973 5.860637 -8.544922 -0.001505 -0.009645 27.276499 9.294204 -14.674664 2.000000 -2.000000 0.000000 -28.657930 29.638920 -25.047510 -39.070210 -0.645442 8.485718 -24.088638 14.010709 -13.987303 -2.000000 2.000000 0.000000 29.266653 -37.455524 -48.678432 29.437941 0.707534 8.408400 16.816345 -16.239902 -16.415207 -51.589783 35.067261 -4.337579 38.769207 -0.818792 -2.951795 -15.680000 -8.816117 -31.985359 -14.043085 -26.643700 -27.358070 38.771183 0.785073 2.901997 0.630470 34.133778 4.234365 
1.228667 36.362980 1.228667 -12.747297 23.102697 79.764549 -31.377419 -1.388860 -19.556847 6.409188 -0.375973 5.860637 -8.544922 -0.001505 -0.009645 24.450825 15.110439 -4.078287 2.000000 -2.000000 0.000000 -8.081860 39.511276 -12.789703 -34.845787 -0.677064 8.447542 -20.993462 15.832806 -16.153557 -2.000000 2.000000 0.000000 35.041351 -58.524380 -53.303326 29.862383 0.701786 8.414968 16.218479 -16.459957 -16.732687 -39.241653 34.056934 1.876415 38.749790 -0.812787 -2.948777 -23.892952 -9.021124 -30.362974 -6.193065 -21.564856 -29.196505 38.771389 0.795089 2.895612 -7.755390 32.559910 3.618569 
1.228667 36.763649 1.228667 -12.747297 23.102697 79.764549 -25.498056 0.289130 -20.221090 6.409188 -0.375973 5.860637 -8.544922 -0.001505 -0.009645 -16.608782 10.234285 -11.523663 2.000000 -2.000000 0.000000 -5.219525 35.557518 -17.691257 -33.958534 -0.681415 8.447356 -8.854752 16.623119 -14.542571 -2.000000 2.000000 0.000000 38.237957 -55.446129 -60.428631 29.862383 0.701786 8.414968 16.053122 -16.182117 -14.884110 -44.259991 34.076603 -0.628710 38.768948 -0.812646 -2.959461 -21.567957 -8.081655 -30.694126 -10.098186 -23.503351 -27.999582 38.771183 0.785240 2.902051 -5.854348 32.573063 4.822864 
1.228667 37.755394 1.228667 -12.747297 23.102697 79.764549 -12.519269 4.226888 -21.056999 6.409188 -0.375973 5.860637 -8.544922 -0.001505 -0.009645 -9.806836 13.570247 -6.293268 2.000000 -2.000000 0.000000 -10.047136 22.827789 -31.523554 -34.845787 -0.677064 8.447542 8.378941 17.682737 -13.222512 -2.000000 2.000000 0.000000 34.841202 -40.231297 -64.248497 29.862383 0.701786 8.414968 15.903288 -15.890280 -13.055228 -58.552105 33.143444 -7.699430 38.768948 -0.812738 -2.959483 -11.454633 -7.422795 -31.088993 -22.107941 -28.665071 -23.565674 38.751930 0.791007 2.893282 3.907763 32.849621 6.056821 
1.228667 38.446602 1.228667 -12.747297 23.102697 79.764549 -5.119231 6.513379 -21.128820 6.409188 -0.375973 5.860637 -8.544922 -0.001505 -0.009645 12.745441 14.698345 1.833940 2.000000 -2.000000 0.000000 -11.228992 15.634668 -38.759483 -34.845787 -0.677064 8.447542 18.547409 21.899508 -18.962759 -2.000000 2.000000 0.000000 31.698252 -31.583998 -66.682167 29.862383 0.701786 8.414968 16.218479 -16.459957 -16.732687 -66.524841 31.950676 -11.528223 38.769306 -0.812828 -2.949818 -0.997607 -9.831897 -30.596178 -29.461973 -31.198715 -20.386040 38.751930 0.791008 2.893282 15.194221 33.454708 3.619576 
1.228667 38.206196 1.228667 -12.747297 23.102697 79.764549 -7.545122 5.758625 -21.140083 6.409188 -0.375973 5.860637 -8.544922 -0.001505 -0.009645 29.430553 13.925117 5.181652 2.000000 -2.000000 0.000000 -12.250810 17.868124 -36.638496 -33.139202 -0.690248 8.438456 15.827844 30.081369 -35.050064 -2.000000 2.000000 0.000000 32.818295 -33.926090 -65.584473 29.862383 0.701786 8.414968 17.371529 -18.005274 -27.837727 -63.624886 32.438782 -10.153496 38.759548 -0.812775 -2.949315 7.683953 -15.896360 -28.103519 -26.716978 -30.326876 -21.589172 38.751930 0.791006 2.893282 25.828430 33.352631 -3.606512 
1.228667 37.645256 1.228667 -12.747297 23.102697 79.764549 -13.894677 3.799526 -21.008873 6.409188 -0.375973 5.860637 -8.544922 -0.001505 -0.009645 20.447359 14.940311 0.828396 2.000000 -2.000000 0.000000 -13.615170 23.820473 -30.978996 -30.771624 -0.702409 8.425103 2.981943 37.007328 -60.157883 -2.000000 2.000000 0.000000 34.940575 -40.324039 -62.620499 29.862383 0.701786 8.414968 19.417189 -19.709145 -43.070339 -56.451015 33.367371 -6.700102 38.769207 -0.818823 -2.951802 17.783916 -22.975842 -22.707886 -20.291578 -27.970705 -24.281103 38.751930 0.791006 2.893282 37.085606 31.003704 -12.831321 
1.228667 37.004055 1.228667 -12.747297 23.102697 79.764549 -21.827724 1.394354 -20.548161 6.409188 -0.375973 5.860637 -8.544922 -0.001505 -0.009645 -2.793546 13.204166 -7.629790 2.000000 -2.000000 0.000000 -13.553641 32.267925 -23.822163 -28.185789 -0.724808 8.404793 -15.729804 37.243893 -90.567802 -2.000000 2.000000 0.000000 36.889549 -48.814728 -59.410515 29.862383 0.701786 8.414968 22.160322 -20.916494 -60.105213 -47.446995 33.991501 -2.237306 38.769211 -0.818764 -2.951788 29.889336 -28.688980 -14.136481 -12.715151 -24.756485 -27.111280 38.780476 0.792071 2.914518 47.339439 25.909857 -21.204472 
1.228667 36.523247 1.228667 -12.747297 23.102697 79.764549 -28.975199 -0.704606 -19.854145 6.409188 -0.375973 5.860637 -8.544922 -0.001505 -0.009645 -25.853277 7.287405 -13.740589 2.000000 -2.000000 0.000000 -11.543876 40.079281 -16.722910 -25.737404 -0.746458 8.389534 -30.590918 31.094904 -117.526154 -2.000000 2.000000 0.000000 38.017586 -56.884418 -56.871162 29.862383 0.701786 8.414968 25.019588 -21.321527 -76.466835 -39.241653 34.056934 1.876415 38.749790 -0.812787 -2.948777 43.370274 -31.331263 -4.040411 -6.193067 -21.564856 -29.196505 38.771389 0.795089 2.895612 55.914360 19.317358 -26.992723 
